<svg height="512pt" viewBox="0 0 512 512" width="512pt" xmlns="http://www.w3.org/2000/svg"><path d="m282.484375 134.707031v-99.398437c-.058594-19.476563-15.835937-35.2500002-35.3125-35.308594-19.476563.0585938-35.25 15.832031-35.308594 35.308594v162.605468l-25.425781 22.777344h-98.160156c-9.738282-.03125-17.628906-7.917968-17.65625-17.65625v-167.726562c-.058594-19.476563-15.832032-35.2500002-35.3125-35.308594-19.476563.0585938-35.2500002 15.832031-35.308594 35.308594v441.382812c.0585938 19.476563 15.832031 35.25 35.308594 35.308594 19.480468-.058594 35.253906-15.832031 35.3125-35.308594v-167.726562c.027344-9.738282 7.917968-17.625 17.65625-17.65625h105.929687c9.75 0 17.65625 7.90625 17.65625 17.65625v185.378906c.027344 9.738281 7.914063 17.628906 17.652344 17.65625h35.3125zm0 0" fill="#4482c3"/><path d="m350.164062 84.746094 158.894532 142.167968c1.871094 1.671876 2.941406 4.066407 2.941406 6.574219v46.929688c0 3.480469-2.046875 6.636719-5.226562 8.058593-3.179688 1.421876-6.894532.839844-9.488282-1.484374l-153.007812-136.921876-140.625 125.878907-12.359375 11.0625c-2.59375 2.339843-6.324219 2.929687-9.515625 1.507812-3.1875-1.425781-5.238282-4.597656-5.226563-8.09375v-46.960937c0-2.511719 1.070313-4.902344 2.941407-6.578125l158.894531-142.167969c3.359375-2.992188 8.433593-2.980469 11.777343.027344zm0 0" fill="#59474e"/><path d="m484.898438 275.949219-52.347657 200.742187h-176.550781l-44.226562-169.492187v-.265625l-1.234376-4.675782-.089843-.179687-6.796875-26.128906 78.832031-70.53125 61.792969-55.347657zm0 0" fill="#c2615f"/><path d="m247.171875 476.691406h194.207031c4.875 0 8.828125 3.949219 8.828125 8.824219v17.65625c0 4.875-3.953125 8.828125-8.828125 8.828125h-194.207031c-4.875 0-8.828125-3.953125-8.828125-8.828125v-17.65625c0-4.875 3.953125-8.824219 8.828125-8.824219zm0 0" fill="#59474e"/><path d="m377.238281 335.449219h-65.925781c-5.0625-.003907-9.882812 2.171875-13.238281 5.96875-3.351563 3.796875-4.910157 8.847656-4.285157 13.875l15.175782 121.398437h70.621094l15.175781-121.398437c.628906-5.027344-.933594-10.078125-4.285157-13.875-3.351562-3.796875-8.175781-5.972657-13.238281-5.96875zm0 0" fill="#cb9080"/><path d="m361.929688 414.898438c-2.347657.023437-4.605469-.902344-6.265626-2.5625-1.660156-1.660157-2.585937-3.917969-2.5625-6.265626.015626-1.15625.253907-2.292968.707032-3.355468.449218-1.070313 1.074218-2.054688 1.855468-2.914063 2.539063-2.503906 6.335938-3.234375 9.621094-1.851562 2.21875.800781 3.964844 2.546875 4.765625 4.765625.453125 1.0625.695313 2.199218.707031 3.355468-.035156 2.335938-.949218 4.574219-2.558593 6.265626-.859375.777343-1.84375 1.402343-2.914063 1.855468-1.046875.492188-2.195312.734375-3.355468.707032zm0 0" fill="#7f5b53"/><path d="m388.414062 256c.019532 2.964844-.273437 5.925781-.882812 8.828125-3.558594 17.328125-17.097656 30.871094-34.429688 34.425781-5.824218 1.179688-11.828124 1.179688-17.652343 0-17.328125-3.554687-30.871094-17.097656-34.429688-34.425781-1.175781-5.828125-1.175781-11.828125 0-17.65625 3.558594-17.328125 17.101563-30.871094 34.429688-34.425781 5.824219-1.179688 11.828125-1.179688 17.652343 0 17.332032 3.554687 30.871094 17.097656 34.429688 34.425781.609375 2.902344.902344 5.863281.882812 8.828125zm0 0" fill="#b0d3f0"/><g fill="#285680"><path d="m353.101562 212.746094v86.507812c-5.824218 1.179688-11.828124 1.179688-17.652343 0v-86.507812c5.824219-1.179688 11.828125-1.179688 17.652343 0zm0 0"/><path d="m388.414062 256c.019532 2.964844-.273437 5.925781-.882812 8.828125h-86.511719c-1.175781-5.828125-1.175781-11.828125 0-17.65625h86.511719c.609375 2.902344.902344 5.863281.882812 8.828125zm0 0"/></g></svg>